<svg width="532" height="532" viewBox="0 0 532 532" fill="none" xmlns="http://www.w3.org/2000/svg">
<g style="mix-blend-mode:multiply">
<path d="M220.461 249.907L71.6074 179.949L111.268 139.597L223.573 228.467L220.461 249.907Z" fill="#FFD500"/>
</g>
<g style="mix-blend-mode:multiply">
<path d="M216.471 263.579L39.6074 245.252L66.4468 166.197L222.083 244.507L216.471 263.579Z" fill="#F39200"/>
</g>
<g style="mix-blend-mode:multiply">
<path d="M222.083 277.677L109.06 291.509L87.8862 231.074L214.077 257.568L222.083 277.677Z" fill="#E30613"/>
</g>
<g style="mix-blend-mode:multiply">
<path d="M222.083 292.387L64.7177 346.093L46.8691 282.199L215.247 272.943L222.083 292.387Z" fill="#BE1622"/>
</g>
<g style="mix-blend-mode:multiply">
<path d="M237.378 300.926L102.357 394.85L87.8862 330.931L220.381 287.493L237.378 300.926Z" fill="#683C11"/>
</g>
<g style="mix-blend-mode:multiply">
<path d="M248.976 308.799L142.895 434.458L55.8599 394.85L229.079 300.234L248.976 308.799Z" fill="#432918"/>
</g>
<g style="mix-blend-mode:multiply">
<path d="M262.223 313.401L168.91 465.447L128.265 435.894L240.783 310.289L262.223 313.401Z" fill="#634E42"/>
</g>
<g style="mix-blend-mode:multiply">
<path d="M276.214 314.412L247.167 476.3L173.352 426.292L254.695 316.939L276.214 314.412Z" fill="#E71D73"/>
</g>
<g style="mix-blend-mode:multiply">
<path d="M289.993 311.779L303.852 475.661L231.872 424.057L269.883 319.785L289.993 311.779Z" fill="#D60B52"/>
</g>
<g style="mix-blend-mode:multiply">
<path d="M302.628 305.661L367.665 481.699L283.955 508.299L285.258 318.615L302.628 305.661Z" fill="#A3195B"/>
</g>
<g style="mix-blend-mode:multiply">
<path d="M313.215 296.484L407.166 431.505L335.905 434.458L299.809 313.481L313.215 296.484Z" fill="#951B81"/>
</g>
<g style="mix-blend-mode:multiply">
<path d="M321.115 284.886L446.773 390.967L417.912 469.889L312.55 304.783L321.115 284.886Z" fill="#662483"/>
</g>
<g style="mix-blend-mode:multiply">
<path d="M325.717 271.639L452.626 327.26L457.813 434.458L322.605 293.079L325.717 271.639Z" fill="#29235C"/>
</g>
<g style="mix-blend-mode:multiply">
<path d="M326.728 257.648L488.616 286.695L453.743 350.136L329.255 279.14L326.728 257.648Z" fill="#2D2E83"/>
</g>
<g style="mix-blend-mode:multiply">
<path d="M324.094 243.869L494.334 207.134L497.154 298.638L332.101 263.978L324.094 243.869Z" fill="#1D71B8"/>
</g>
<g style="mix-blend-mode:multiply">
<path d="M312.55 225.063L472.708 175.454L486.062 214.901L318.801 249.907L312.55 225.063Z" fill="#36A9E1"/>
</g>
<g style="mix-blend-mode:multiply">
<path d="M321.833 218.226L392.935 157.179L446.774 200.192L325.797 234.053L321.833 218.226Z" fill="#00A19A"/>
</g>
<g style="mix-blend-mode:multiply">
<path d="M303.852 207.134L403.309 87.0884L423.206 152.019L317.098 221.312L303.852 207.134Z" fill="#2FAC66"/>
</g>
<g style="mix-blend-mode:multiply">
<path d="M283.955 208.145L353.487 52.402L417.913 85.652L303.852 215.886L283.955 208.145Z" fill="#006633"/>
</g>
<g style="mix-blend-mode:multiply">
<path d="M269.963 207.134L293.052 29.4994L367.665 84.189L291.483 204.607L269.963 207.134Z" fill="#008D36"/>
</g>
<g style="mix-blend-mode:multiply">
<path d="M256.184 209.768L213.97 45.2466L310.954 36.708L276.214 207.134L256.184 209.768Z" fill="#3AAA35"/>
</g>
<g style="mix-blend-mode:multiply">
<path d="M243.55 215.886L202.825 107.092L227.377 25.0572L260.92 202.931L243.55 215.886Z" fill="#95C11F"/>
</g>
<g style="mix-blend-mode:multiply">
<path d="M232.963 225.063L159.308 115.949L207.454 89.3228L246.369 208.065L232.963 225.063Z" fill="#DEDC00"/>
</g>
<g style="mix-blend-mode:multiply">
<path d="M223.573 228.467L76.5547 126.696L141.432 75.5706L233.628 216.763L223.573 228.467Z" fill="#FFED00"/>
</g>
<path style="mix-blend-mode:multiply" d="M403.229 261.292C403.229 287.649 395.413 313.415 380.77 335.33C366.127 357.246 345.313 374.327 320.962 384.414C296.611 394.5 269.816 397.139 243.964 391.997C218.113 386.855 194.368 374.163 175.73 355.525C157.092 336.888 144.4 313.142 139.258 287.291C134.116 261.44 136.755 234.644 146.842 210.293C156.928 185.942 174.009 165.129 195.925 150.485C217.84 135.842 243.606 128.026 269.963 128.026C305.308 128.026 339.204 142.066 364.197 167.059C389.189 192.051 403.229 225.947 403.229 261.292Z" fill="url(#paint0_radial_767_115706)"/>
<path d="M364.42 261.292C364.42 279.958 358.885 298.205 348.515 313.725C338.145 329.245 323.405 341.341 306.16 348.485C288.915 355.628 269.939 357.497 251.631 353.855C233.324 350.214 216.508 341.225 203.309 328.026C190.11 314.827 181.122 298.011 177.48 279.704C173.838 261.396 175.707 242.42 182.851 225.175C189.994 207.93 202.09 193.191 217.61 182.82C233.131 172.45 251.377 166.915 270.043 166.915C295.074 166.915 319.079 176.858 336.778 194.557C354.477 212.256 364.42 236.262 364.42 261.292Z" fill="#F9B233"/>
<path d="M348.915 279.924C359.207 236.315 332.199 192.619 288.591 182.327C244.982 172.034 201.286 199.042 190.994 242.651C180.701 286.26 207.709 329.955 251.318 340.248C294.927 350.541 338.622 323.532 348.915 279.924Z" fill="white"/>
<defs>
<radialGradient id="paint0_radial_767_115706" cx="0" cy="0" r="1" gradientUnits="userSpaceOnUse" gradientTransform="translate(269.963 261.292) scale(133.266)">
<stop stop-color="#1D1D1B"/>
<stop offset="0.21" stop-color="#575755"/>
<stop offset="0.49" stop-color="#9E9E9D"/>
<stop offset="0.73" stop-color="#D2D2D2"/>
<stop offset="0.9" stop-color="#F3F3F3"/>
<stop offset="1" stop-color="white"/>
</radialGradient>
</defs>
</svg>
