<svg width="459" height="484" viewBox="0 0 459 484" fill="none" xmlns="http://www.w3.org/2000/svg">
<g style="mix-blend-mode:multiply">
<path d="M181.461 224.907L32.6074 154.949L72.268 114.597L184.573 203.467L181.461 224.907Z" fill="#FFD500"/>
</g>
<g style="mix-blend-mode:multiply">
<path d="M177.471 238.579L0.607422 220.252L27.4468 141.197L183.083 219.507L177.471 238.579Z" fill="#F39200"/>
</g>
<g style="mix-blend-mode:multiply">
<path d="M183.083 252.677L70.0598 266.509L48.8862 206.074L175.077 232.568L183.083 252.677Z" fill="#E30613"/>
</g>
<g style="mix-blend-mode:multiply">
<path d="M183.083 267.387L25.7177 321.093L7.86914 257.199L176.247 247.943L183.083 267.387Z" fill="#BE1622"/>
</g>
<g style="mix-blend-mode:multiply">
<path d="M198.378 275.926L63.3566 369.85L48.8862 305.931L181.381 262.493L198.378 275.926Z" fill="#683C11"/>
</g>
<g style="mix-blend-mode:multiply">
<path d="M209.976 283.799L103.895 409.458L16.8599 369.85L190.079 275.234L209.976 283.799Z" fill="#432918"/>
</g>
<g style="mix-blend-mode:multiply">
<path d="M223.223 288.401L129.91 440.447L89.2651 410.894L201.783 285.289L223.223 288.401Z" fill="#634E42"/>
</g>
<g style="mix-blend-mode:multiply">
<path d="M237.214 289.412L208.167 451.3L134.352 401.292L215.695 291.939L237.214 289.412Z" fill="#E71D73"/>
</g>
<g style="mix-blend-mode:multiply">
<path d="M250.993 286.779L264.852 450.661L192.872 399.057L230.883 294.785L250.993 286.779Z" fill="#D60B52"/>
</g>
<g style="mix-blend-mode:multiply">
<path d="M263.628 280.661L328.665 456.699L244.955 483.299L246.258 293.615L263.628 280.661Z" fill="#A3195B"/>
</g>
<g style="mix-blend-mode:multiply">
<path d="M274.215 271.484L368.166 406.505L296.905 409.458L260.809 288.481L274.215 271.484Z" fill="#951B81"/>
</g>
<g style="mix-blend-mode:multiply">
<path d="M282.115 259.886L407.773 365.967L378.912 444.889L273.55 279.783L282.115 259.886Z" fill="#662483"/>
</g>
<g style="mix-blend-mode:multiply">
<path d="M286.717 246.639L413.626 302.26L418.813 409.458L283.605 268.079L286.717 246.639Z" fill="#29235C"/>
</g>
<g style="mix-blend-mode:multiply">
<path d="M287.728 232.648L449.616 261.695L414.743 325.136L290.255 254.14L287.728 232.648Z" fill="#2D2E83"/>
</g>
<g style="mix-blend-mode:multiply">
<path d="M285.094 218.869L455.334 182.134L458.154 273.638L293.101 238.978L285.094 218.869Z" fill="#1D71B8"/>
</g>
<g style="mix-blend-mode:multiply">
<path d="M273.55 200.063L433.708 150.454L447.062 189.901L279.801 224.907L273.55 200.063Z" fill="#36A9E1"/>
</g>
<g style="mix-blend-mode:multiply">
<path d="M282.833 193.226L353.935 132.179L407.774 175.192L286.797 209.053L282.833 193.226Z" fill="#00A19A"/>
</g>
<g style="mix-blend-mode:multiply">
<path d="M264.852 182.134L364.309 62.0884L384.206 127.019L278.098 196.312L264.852 182.134Z" fill="#2FAC66"/>
</g>
<g style="mix-blend-mode:multiply">
<path d="M244.955 183.145L314.487 27.402L378.913 60.652L264.852 190.886L244.955 183.145Z" fill="#006633"/>
</g>
<g style="mix-blend-mode:multiply">
<path d="M230.963 182.134L254.052 4.4994L328.665 59.189L252.483 179.607L230.963 182.134Z" fill="#008D36"/>
</g>
<g style="mix-blend-mode:multiply">
<path d="M217.184 184.768L174.97 20.2466L271.954 11.708L237.214 182.134L217.184 184.768Z" fill="#3AAA35"/>
</g>
<g style="mix-blend-mode:multiply">
<path d="M204.55 190.886L163.825 82.0916L188.377 0.0572014L221.92 177.931L204.55 190.886Z" fill="#95C11F"/>
</g>
<g style="mix-blend-mode:multiply">
<path d="M193.963 200.063L120.308 90.9494L168.454 64.3228L207.369 183.065L193.963 200.063Z" fill="#DEDC00"/>
</g>
<g style="mix-blend-mode:multiply">
<path d="M184.573 203.467L37.5547 101.696L102.432 50.5706L194.628 191.763L184.573 203.467Z" fill="#FFED00"/>
</g>
<path style="mix-blend-mode:multiply" d="M364.229 236.292C364.229 262.649 356.413 288.415 341.77 310.33C327.127 332.246 306.313 349.327 281.962 359.414C257.611 369.5 230.816 372.139 204.964 366.997C179.113 361.855 155.368 349.163 136.73 330.525C118.092 311.888 105.4 288.142 100.258 262.291C95.1159 236.44 97.755 209.644 107.842 185.293C117.928 160.942 135.009 140.129 156.925 125.485C178.84 110.842 204.606 103.026 230.963 103.026C266.308 103.026 300.204 117.066 325.197 142.059C350.189 167.051 364.229 200.947 364.229 236.292Z" fill="url(#paint0_radial_767_115707)"/>
<path d="M325.42 236.292C325.42 254.958 319.885 273.205 309.515 288.725C299.145 304.245 284.405 316.341 267.16 323.485C249.915 330.628 230.939 332.497 212.631 328.855C194.324 325.214 177.508 316.225 164.309 303.026C151.11 289.827 142.122 273.011 138.48 254.704C134.838 236.396 136.707 217.42 143.851 200.175C150.994 182.93 163.09 168.191 178.61 157.82C194.131 147.45 212.377 141.915 231.043 141.915C256.074 141.915 280.079 151.858 297.778 169.557C315.477 187.256 325.42 211.262 325.42 236.292Z" fill="#F9B233"/>
<path d="M309.915 254.924C320.207 211.315 293.199 167.619 249.591 157.327C205.982 147.034 162.286 174.042 151.994 217.651C141.701 261.26 168.709 304.955 212.318 315.248C255.927 325.541 299.622 298.532 309.915 254.924Z" fill="white"/>
<defs>
<radialGradient id="paint0_radial_767_115707" cx="0" cy="0" r="1" gradientUnits="userSpaceOnUse" gradientTransform="translate(230.963 236.292) scale(133.266)">
<stop stop-color="#1D1D1B"/>
<stop offset="0.21" stop-color="#575755"/>
<stop offset="0.49" stop-color="#9E9E9D"/>
<stop offset="0.73" stop-color="#D2D2D2"/>
<stop offset="0.9" stop-color="#F3F3F3"/>
<stop offset="1" stop-color="white"/>
</radialGradient>
</defs>
</svg>
