<svg width="49" height="49" viewBox="0 0 49 49" fill="none" xmlns="http://www.w3.org/2000/svg">
<g clip-path="url(#clip0_960_89039)">
<path d="M18.8882 38.6398C19.9928 38.6398 20.8882 37.7444 20.8882 36.6398C20.8882 35.5353 19.9928 34.6398 18.8882 34.6398C17.7836 34.6398 16.8882 35.5353 16.8882 36.6398C16.8882 37.7444 17.7836 38.6398 18.8882 38.6398Z" fill="#BB1E5E"/>
<path d="M32.8882 38.6398C33.9928 38.6398 34.8882 37.7444 34.8882 36.6398C34.8882 35.5353 33.9928 34.6398 32.8882 34.6398C31.7836 34.6398 30.8882 35.5353 30.8882 36.6398C30.8882 37.7444 31.7836 38.6398 32.8882 38.6398Z" fill="#BB1E5E"/>
<path d="M36.8882 15.6398H14.7082L13.8882 11.4398C13.8414 11.2105 13.7158 11.0049 13.533 10.8588C13.3503 10.7126 13.1221 10.6351 12.8882 10.6398H8.88818V12.6398H12.0682L15.8882 31.8398C15.9349 32.0691 16.0606 32.2747 16.2433 32.4209C16.426 32.5671 16.6542 32.6445 16.8882 32.6398H34.8882V30.6398H17.7082L16.8882 26.6398H34.8882C35.1193 26.6455 35.3453 26.5708 35.5276 26.4286C35.71 26.2864 35.8374 26.0854 35.8882 25.8598L37.8882 16.8598C37.9217 16.7115 37.9209 16.5574 37.8859 16.4094C37.8509 16.2613 37.7826 16.1232 37.6861 16.0056C37.5897 15.888 37.4677 15.7939 37.3294 15.7305C37.1912 15.6671 37.0403 15.6361 36.8882 15.6398ZM34.0882 24.6398H16.5082L15.1082 17.6398H35.6382L34.0882 24.6398Z" fill="#213B6F"/>
</g>
<defs>
<clipPath id="clip0_960_89039">
<rect width="32" height="32" fill="white" transform="translate(8.88818 8.63982)"/>
</clipPath>
</defs>
</svg>
