<svg width="67" height="66" viewBox="0 0 67 66" fill="none" xmlns="http://www.w3.org/2000/svg">
<path d="M23.1943 36.8181L26.0784 39.7022L31.3762 34.4249V59.3181H35.4671V34.4249L40.7648 39.7022L43.6489 36.8181L33.4216 26.5908L23.1943 36.8181Z" fill="#BB1E5E"/>
<path d="M48.7622 45H47.7395V40.9091H48.7622C51.2034 41.0068 53.5834 40.1307 55.3787 38.4735C57.1739 36.8164 58.2373 34.514 58.335 32.0728C58.4326 29.6316 57.5565 27.2516 55.8994 25.4563C54.2422 23.6611 51.9398 22.5977 49.4986 22.5H47.7395L47.535 20.8228C47.0812 17.3791 45.3911 14.2179 42.7795 11.9279C40.1679 9.63785 36.8129 8.37525 33.3395 8.37525C29.8661 8.37525 26.5111 9.63785 23.8995 11.9279C21.288 14.2179 19.5978 17.3791 19.144 20.8228L19.1031 22.5H17.344C14.9029 22.5977 12.6004 23.6611 10.9433 25.4563C9.28615 27.2516 8.41004 29.6316 8.50768 32.0728C8.60533 34.514 9.66874 36.8164 11.464 38.4735C13.2592 40.1307 15.6392 41.0068 18.0804 40.9091H19.1031V45H18.0804C14.8003 44.9793 11.6437 43.7467 9.21743 41.5393C6.79115 39.3319 5.26649 36.3056 4.93659 33.0421C4.60668 29.7785 5.49482 26.5083 7.43024 23.86C9.36567 21.2117 12.2118 19.3723 15.4213 18.6955C16.3044 14.577 18.573 10.8859 21.8488 8.23804C25.1245 5.59019 29.2092 4.14575 33.4213 4.14575C37.6334 4.14575 41.7181 5.59019 44.9939 8.23804C48.2696 10.8859 50.5383 14.577 51.4213 18.6955C54.6309 19.3723 57.477 21.2117 59.4124 23.86C61.3478 26.5083 62.236 29.7785 61.9061 33.0421C61.5762 36.3056 60.0515 39.3319 57.6252 41.5393C55.1989 43.7467 52.0423 44.9793 48.7622 45Z" fill="#213B6F"/>
</svg>
