<svg width="38" height="38" viewBox="0 0 38 38" fill="none" xmlns="http://www.w3.org/2000/svg">
<g clip-path="url(#clip0_767_115783)">
<path d="M30.875 7.125V11.875H7.125V7.125H30.875ZM30.875 4.75H7.125C6.49511 4.75 5.89102 5.00022 5.44562 5.44562C5.00022 5.89102 4.75 6.49511 4.75 7.125V11.875C4.75 12.5049 5.00022 13.109 5.44562 13.5544C5.89102 13.9998 6.49511 14.25 7.125 14.25H30.875C31.5049 14.25 32.109 13.9998 32.5544 13.5544C32.9998 13.109 33.25 12.5049 33.25 11.875V7.125C33.25 6.49511 32.9998 5.89102 32.5544 5.44562C32.109 5.00022 31.5049 4.75 30.875 4.75Z" fill="#213B6F"/>
<path d="M11.875 19V30.875H7.125V19H11.875ZM11.875 16.625H7.125C6.49511 16.625 5.89102 16.8752 5.44562 17.3206C5.00022 17.766 4.75 18.3701 4.75 19V30.875C4.75 31.5049 5.00022 32.109 5.44562 32.5544C5.89102 32.9998 6.49511 33.25 7.125 33.25H11.875C12.5049 33.25 13.109 32.9998 13.5544 32.5544C13.9998 32.109 14.25 31.5049 14.25 30.875V19C14.25 18.3701 13.9998 17.766 13.5544 17.3206C13.109 16.8752 12.5049 16.625 11.875 16.625Z" fill="#213B6F"/>
<path d="M30.875 19V30.875H19V19H30.875ZM30.875 16.625H19C18.3701 16.625 17.766 16.8752 17.3206 17.3206C16.8752 17.766 16.625 18.3701 16.625 19V30.875C16.625 31.5049 16.8752 32.109 17.3206 32.5544C17.766 32.9998 18.3701 33.25 19 33.25H30.875C31.5049 33.25 32.109 32.9998 32.5544 32.5544C32.9998 32.109 33.25 31.5049 33.25 30.875V19C33.25 18.3701 32.9998 17.766 32.5544 17.3206C32.109 16.8752 31.5049 16.625 30.875 16.625Z" fill="#BB1E5E"/>
</g>
<defs>
<clipPath id="clip0_767_115783">
<rect width="38" height="38" fill="white"/>
</clipPath>
</defs>
</svg>
