<svg width="67" height="66" viewBox="0 0 67 66" fill="none" xmlns="http://www.w3.org/2000/svg">
<path d="M29.3309 34.7727H12.9673V38.8636H29.3309V34.7727Z" fill="#BB1E5E"/>
<path d="M6.83061 38.8636C7.96028 38.8636 8.87607 37.9478 8.87607 36.8182C8.87607 35.6885 7.96028 34.7727 6.83061 34.7727C5.70094 34.7727 4.78516 35.6885 4.78516 36.8182C4.78516 37.9478 5.70094 38.8636 6.83061 38.8636Z" fill="#213B6F"/>
<path d="M27.2852 30.6817C28.4149 30.6817 29.3307 29.7659 29.3307 28.6363C29.3307 27.5066 28.4149 26.5908 27.2852 26.5908C26.1555 26.5908 25.2397 27.5066 25.2397 28.6363C25.2397 29.7659 26.1555 30.6817 27.2852 30.6817Z" fill="#213B6F"/>
<path d="M21.1488 26.5908H4.78516V30.6817H21.1488V26.5908Z" fill="#BB1E5E"/>
<path d="M29.3309 18.4092H12.9673V22.5001H29.3309V18.4092Z" fill="#BB1E5E"/>
<path d="M6.83061 22.5001C7.96028 22.5001 8.87607 21.5843 8.87607 20.4546C8.87607 19.325 7.96028 18.4092 6.83061 18.4092C5.70094 18.4092 4.78516 19.325 4.78516 20.4546C4.78516 21.5843 5.70094 22.5001 6.83061 22.5001Z" fill="#213B6F"/>
<path d="M62.0577 58.4999L46.9213 43.3636C49.9895 39.2726 51.8304 34.159 51.8304 28.6363C51.8304 15.1363 40.785 4.09082 27.285 4.09082C20.535 4.09082 14.1941 6.74991 9.48952 11.8635L12.5577 14.7272C16.2395 10.4317 21.5577 8.18173 27.285 8.18173C38.535 8.18173 47.7395 17.3863 47.7395 28.6363C47.7395 39.8863 38.535 49.0908 27.285 49.0908C21.1486 49.0908 15.4213 46.4317 11.535 41.7272L8.4668 44.3863C12.9668 49.909 19.9213 53.1817 27.285 53.1817C33.8304 53.1817 39.7623 50.5226 44.2623 46.4317L59.1941 61.3636L62.0577 58.4999Z" fill="#213B6F"/>
</svg>
