<svg width="18" height="18" viewBox="0 0 18 18" fill="none" xmlns="http://www.w3.org/2000/svg">
<path d="M15.0375 15.0707L12.0238 12.057M12.0238 12.057C12.5393 11.5415 12.9482 10.9295 13.2272 10.256C13.5062 9.58244 13.6498 8.86055 13.6498 8.13152C13.6498 7.4025 13.5062 6.68061 13.2272 6.00708C12.9482 5.33355 12.5393 4.72156 12.0238 4.20606C11.5083 3.69056 10.8963 3.28164 10.2228 3.00266C9.54924 2.72367 8.82735 2.58008 8.09832 2.58008C7.3693 2.58008 6.64741 2.72367 5.97388 3.00266C5.30034 3.28164 4.68836 3.69056 4.17286 4.20606C3.13176 5.24716 2.54687 6.65919 2.54688 8.13152C2.54688 9.60386 3.13176 11.0159 4.17286 12.057C5.21395 13.0981 6.62599 13.683 8.09832 13.683C9.57066 13.683 10.9827 13.0981 12.0238 12.057Z" stroke="#19002B" stroke-opacity="0.6" stroke-width="1.85043" stroke-linecap="round" stroke-linejoin="round"/>
</svg>
