<svg width="67" height="66" viewBox="0 0 67 66" fill="none" xmlns="http://www.w3.org/2000/svg">
<path d="M43.5334 49.0908H35.3516V57.2726H43.5334V49.0908Z" fill="#BB1E5E"/>
<path d="M57.8513 49.0908H49.6694V57.2726H57.8513V49.0908Z" fill="#BB1E5E"/>
<path d="M43.5334 34.7727H35.3516V42.9545H43.5334V34.7727Z" fill="#BB1E5E"/>
<path d="M57.8513 34.7727H49.6694V42.9545H57.8513V34.7727Z" fill="#BB1E5E"/>
<path d="M57.8512 22.5001H45.5785V14.3182C45.5785 10.841 42.9194 8.18188 39.4421 8.18188H27.1694C23.6921 8.18188 21.033 10.841 21.033 14.3182V22.5001H8.7603C7.53303 22.5001 6.71484 23.3182 6.71484 24.5455C6.71484 24.7501 6.71484 24.7501 6.71484 24.9546L10.6012 49.7046C10.8058 51.7501 12.6467 53.1819 14.6921 53.1819H31.2603V49.091H14.6921L11.2148 26.591H57.8512V22.5001ZM25.1239 14.3182C25.1239 13.091 25.9421 12.2728 27.1694 12.2728H39.4421C40.6694 12.2728 41.4876 13.091 41.4876 14.3182V22.5001H25.1239V14.3182Z" fill="#213B6F"/>
</svg>
