<svg width="78" height="78" viewBox="0 0 78 78" fill="none" xmlns="http://www.w3.org/2000/svg">
<g id="document--upload" clip-path="url(#clip0_68_46500)">
<path id="Vector" d="M73.125 56.0625L69.6784 59.5091L63.375 53.2057V73.125H58.5V53.2057L52.1966 59.5091L48.75 56.0625L60.9375 43.875L73.125 56.0625Z" fill="#BB1E5E"/>
<path id="Vector_2" d="M43.875 68.25H19.5V9.75001H39V24.375C39.0037 25.6668 39.5185 26.9046 40.432 27.818C41.3454 28.7315 42.5832 29.2463 43.875 29.25H58.5V36.5625H63.375V24.375C63.3837 24.0546 63.3229 23.7362 63.1966 23.4416C63.0704 23.1471 62.8818 22.8834 62.6438 22.6688L45.5813 5.60626C45.3667 5.36819 45.103 5.17952 44.8084 5.05327C44.5138 4.92702 44.1954 4.8662 43.875 4.87501H19.5C18.2082 4.87874 16.9704 5.39356 16.057 6.30699C15.1435 7.22042 14.6287 8.45823 14.625 9.75001V68.25C14.6287 69.5418 15.1435 70.7796 16.057 71.693C16.9704 72.6065 18.2082 73.1213 19.5 73.125H43.875V68.25ZM43.875 10.725L57.525 24.375H43.875V10.725Z" fill="#213B6F"/>
</g>
<defs>
<clipPath id="clip0_68_46500">
<rect width="78" height="78" fill="white"/>
</clipPath>
</defs>
</svg>
