<svg width="49" height="49" viewBox="0 0 49 49" fill="none" xmlns="http://www.w3.org/2000/svg">
<path fill-rule="evenodd" clip-rule="evenodd" d="M27.666 13.4825C26.8438 12.9331 25.8771 12.6398 24.8882 12.6398C23.5621 12.6398 22.2903 13.1666 21.3527 14.1043C20.415 15.042 19.8882 16.3137 19.8882 17.6398C19.8882 18.6287 20.1814 19.5954 20.7308 20.4177C21.2802 21.2399 22.0611 21.8808 22.9748 22.2592C23.8884 22.6377 24.8937 22.7367 25.8636 22.5437C26.8335 22.3508 27.7245 21.8746 28.4237 21.1754C29.123 20.4761 29.5992 19.5852 29.7921 18.6153C29.985 17.6454 29.886 16.64 29.5076 15.7264C29.1291 14.8128 28.4883 14.0319 27.666 13.4825ZM20.9992 11.8195C22.1503 11.0504 23.5037 10.6398 24.8882 10.6398C26.7447 10.6398 28.5252 11.3773 29.8379 12.6901C31.1507 14.0028 31.8882 15.7833 31.8882 17.6398C31.8882 19.0243 31.4776 20.3777 30.7085 21.5288C29.9393 22.68 28.8461 23.5772 27.567 24.107C26.2879 24.6368 24.8804 24.7754 23.5226 24.5053C22.1647 24.2352 20.9174 23.5685 19.9384 22.5896C18.9595 21.6106 18.2928 20.3633 18.0227 19.0055C17.7526 17.6476 17.8912 16.2401 18.421 14.961C18.9508 13.682 19.8481 12.5887 20.9992 11.8195ZM32.8882 38.6398H34.8882V33.6398C34.8882 31.7833 34.1507 30.0028 32.8379 28.6901C31.5252 27.3773 29.7447 26.6398 27.8882 26.6398H21.8882C20.0317 26.6398 18.2512 27.3773 16.9384 28.6901C15.6257 30.0028 14.8882 31.7833 14.8882 33.6398V38.6398H16.8882V33.6398C16.8882 32.3137 17.415 31.042 18.3526 30.1043C19.2903 29.1666 20.5621 28.6398 21.8882 28.6398H27.8882C28.5448 28.6398 29.195 28.7692 29.8016 29.0204C30.4082 29.2717 30.9594 29.64 31.4237 30.1043C31.888 30.5686 32.2563 31.1198 32.5076 31.7264C32.7589 32.333 32.8882 32.9832 32.8882 33.6398V38.6398Z" fill="#213B6F"/>
</svg>
